<?xml version="1.0" encoding="utf-8"?>
<!-- Generator: Adobe Illustrator 19.0.0, SVG Export Plug-In . SVG Version: 6.00 Build 0)  -->
<svg version="1.1" xmlns="http://www.w3.org/2000/svg" xmlns:xlink="http://www.w3.org/1999/xlink" x="0px" y="0px"
	 viewBox="0 0 332.7 87.5" style="enable-background:new 0 0 332.7 87.5;" xml:space="preserve">
<style type="text/css">
	.st0{fill:#FFFFFF;stroke:#FFFFFF;stroke-miterlimit:10;}
	.st1{fill:#FFFFFF;stroke:#FFFFFF;stroke-width:4;stroke-miterlimit:10;}
</style>
<g id="PathXpert">
	<g id="XMLID_2_">
		<path id="XMLID_3_" class="st0" d="M95.1,51.3h-8.4V17.4h13.9c5.5,0,8.8,0.5,11.2,2.9c1.9,1.9,2.9,5.1,2.9,8.8
			c0,3.7-1.1,7-2.9,8.9c-2.4,2.4-5.7,2.9-11.2,2.9h-5.5V51.3z M99.9,34.7c2.4,0,3.9,0,4.9-1c0.9-0.9,1.3-2.4,1.3-4.7
			c0-2.3-0.5-3.8-1.3-4.7c-1-1-2.5-0.9-4.9-0.9H95v11.2H99.9z"/>
		<path id="XMLID_7_" class="st0" d="M133.9,35.3v-1.7c0-2.3,0-3.1-5.4-3.1c-2.6,0-5.7,0.3-8.8,0.9V26c3.3-0.8,8.3-1,9.9-1
			c9.5,0,12,2.1,12,9v17.4h-5.3l-0.9-2.6h0c-1.7,2-4.7,3.2-8,3.2c-3.1,0-5.9-0.6-7.7-2.5c-1.3-1.3-2.1-3.3-2.1-5.8
			c0-2.4,0.6-4.4,2.1-5.9c2.1-2.1,6.3-2.7,10.7-2.7C131.6,35.1,132.6,35.2,133.9,35.3z M133.9,39.9c-1.5,0-2.6-0.1-3.3-0.1
			c-2.3,0-3.6,0.3-4.4,1.1c-0.4,0.4-0.7,1-0.7,2.2c0,2.7,1.6,3.1,3.7,3.1c2.4,0,3.8-0.9,4.7-2.2V39.9z"/>
		<path id="XMLID_11_" class="st0" d="M165.2,50.9c-2.2,0.9-5.5,1-7,1c-6.2,0-8.6-2-8.6-9.2V31.3h-4v-4.9l4.7-0.7l2-5.7h5.3v5.7h7.6
			v5.5h-7.6v11.1c0,3.4,1.6,3.6,3.6,3.6c1,0,2.9-0.2,4.1-0.6V50.9z"/>
		<path id="XMLID_68_" class="st0" d="M186.1,25.1c6.4,0,9.1,2.3,9.1,8v18.3h-7.9V34.5c0-2.5-1-3.2-3.4-3.2c-2.2,0-4.7,1.4-6,2.8
			v17.3h-8V17.4h8v10.5h0.1C180.5,26,183.4,25.1,186.1,25.1z"/>
		<path id="XMLID_70_" class="st0" d="M207.5,17.4l6.5,10.2l6.4-10.2h9.4l-11.2,16.4l11.8,17.5h-9.8l-6.9-10.9l-6.8,10.9h-9.4
			l11.5-17.1l-11.4-16.8H207.5z"/>
		<path id="XMLID_72_" class="st0" d="M247.4,25.1c7.9,0,12,4.4,12,13.5c0,8.7-5,13.5-12.9,13.5c-1.1,0-3.5-0.2-5.4-1.2v8.9h-8V25.8
			h5.5l0.8,2.8h0.1C241.6,26.4,244.5,25.1,247.4,25.1z M241.2,44.9c1.2,1,3.1,1.2,4.6,1.2c4.5,0,5.3-3.4,5.3-7.6
			c0-5.9-1.8-7.4-5.2-7.4c-1.8,0-3.6,1-4.8,2.4V44.9z"/>
		<path id="XMLID_75_" class="st0" d="M271.7,40.6c0,1.8,0.3,3.3,1.3,4.3c1.2,1.1,3,1.6,5.9,1.6c2.4,0,5.7-0.5,8.2-1.1v5.5
			c-2.5,0.8-6.7,1.4-9.8,1.4c-10,0-13.8-4.6-13.8-13.7c0-10.6,6.3-13.7,13-13.7c8,0,11.7,3.6,11.7,11.1c0,0.9-0.1,3-0.3,4.6H271.7z
			 M273.1,31.4c-0.9,0.9-1.2,2.5-1.3,4.1h9c0-0.5,0-0.9,0-1c0-1.4-0.3-2.5-1-3.1c-0.8-0.9-2-1.1-3.3-1.1
			C275.4,30.3,274,30.5,273.1,31.4z"/>
		<path id="XMLID_78_" class="st0" d="M300.7,29.3c1.4-2.4,3.3-4.1,6.5-4.1c1,0,2.5,0.1,3.6,0.8v5.9c-1.1-0.3-2.3-0.4-2.9-0.4
			c-3.2,0-4.7,1.7-5.9,3.8v16.1h-8V25.8h5.5L300.7,29.3L300.7,29.3z"/>
		<path id="XMLID_80_" class="st0" d="M331.4,50.9c-2.2,0.9-5.5,1-7,1c-6.2,0-8.6-2-8.6-9.2V31.3h-4v-4.9l4.7-0.7l2-5.7h5.3v5.7h7.6
			v5.5h-7.6v11.1c0,3.4,1.6,3.6,3.6,3.6c1,0,2.8-0.2,4.1-0.6V50.9z"/>
	</g>
</g>
<g id="Slogan">
</g>
<g id="Isotype">
	<g id="Lines">
		<line id="XMLID_63_" class="st1" x1="38.2" y1="43.7" x2="38.2" y2="77.2"/>
		<line id="XMLID_62_" class="st1" x1="38.2" y1="43.7" x2="38.2" y2="9.7"/>
		<line id="XMLID_61_" class="st1" x1="38.2" y1="43.7" x2="67.2" y2="26.5"/>
		<line id="XMLID_57_" class="st1" x1="38.3" y1="44.1" x2="9.3" y2="27.1"/>
		<line id="XMLID_56_" class="st1" x1="38.2" y1="43.7" x2="9.3" y2="60.5"/>
		<line id="XMLID_24_" class="st1" x1="38.3" y1="44.3" x2="67.2" y2="60.4"/>
		<line id="XMLID_1_" class="st1" x1="38.3" y1="10.3" x2="67.2" y2="27.1"/>
	</g>
	<g id="Nodes">
		<path id="XMLID_51_" class="st0" d="M8,37.1l-6.7-3.9C0.5,32.7,0,31.9,0,30.9v-7.7c0-0.9,0.5-1.8,1.3-2.3L8,17.1
			c0.8-0.5,1.8-0.5,2.6,0l6.7,3.9c0.8,0.5,1.3,1.3,1.3,2.3v7.7c0,0.9-0.5,1.8-1.3,2.3l-6.7,3.9C9.8,37.5,8.8,37.5,8,37.1z"/>
		<path id="XMLID_48_" class="st0" d="M7.8,36.9l-6.2-3.6c-1-0.5-1.5-1.6-1.5-2.7v-7.2c0-1.1,0.6-2.1,1.5-2.7l6.2-3.6
			c1-0.5,2.1-0.5,3.1,0l6.2,3.6c1,0.5,1.5,1.6,1.5,2.7v7.2c0,1.1-0.6,2.1-1.5,2.7l-6.2,3.6C9.9,37.5,8.7,37.5,7.8,36.9z"/>
		<path id="XMLID_45_" class="st0" d="M7.8,70.3l-6.2-3.6C0.6,66.2,0,65.1,0,64v-7.2c0-1.1,0.6-2.1,1.5-2.7l6.2-3.6
			c1-0.5,2.1-0.5,3.1,0l6.2,3.6c1,0.5,1.5,1.6,1.5,2.7V64c0,1.1-0.6,2.1-1.5,2.7l-6.2,3.6C9.9,70.9,8.7,70.9,7.8,70.3z"/>
		<path id="XMLID_42_" class="st0" d="M65.7,70.3l-6.2-3.6c-1-0.5-1.5-1.6-1.5-2.7v-7.2c0-1.1,0.6-2.1,1.5-2.7l6.2-3.6
			c1-0.5,2.1-0.5,3.1,0l6.2,3.6c1,0.5,1.5,1.6,1.5,2.7V64c0,1.1-0.6,2.1-1.5,2.7l-6.2,3.6C67.8,70.9,66.6,70.9,65.7,70.3z"/>
		<path id="XMLID_35_" class="st0" d="M36.9,53.7l-6.7-3.9c-0.8-0.5-1.3-1.3-1.3-2.3v-7.7c0-0.9,0.5-1.8,1.3-2.3l6.7-3.9
			c0.8-0.5,1.8-0.5,2.6,0l6.7,3.9c0.8,0.5,1.3,1.3,1.3,2.3v7.7c0,0.9-0.5,1.8-1.3,2.3l-6.7,3.9C38.7,54.2,37.7,54.2,36.9,53.7z"/>
		<path id="XMLID_30_" class="st0" d="M36.7,53.6L30.5,50c-1-0.5-1.5-1.6-1.5-2.7v-7.2c0-1.1,0.6-2.1,1.5-2.7l6.2-3.6
			c1-0.5,2.1-0.5,3.1,0l6.2,3.6c1,0.5,1.5,1.6,1.5,2.7v7.2c0,1.1-0.6,2.1-1.5,2.7l-6.2,3.6C38.8,54.2,37.7,54.2,36.7,53.6z"/>
		<path id="XMLID_27_" class="st0" d="M36.9,20.3l-6.7-3.9c-0.8-0.5-1.3-1.3-1.3-2.3V6.5c0-0.9,0.5-1.8,1.3-2.3l6.7-3.9
			c0.8-0.5,1.8-0.5,2.6,0l6.7,3.9c0.8,0.5,1.3,1.3,1.3,2.3v7.7c0,0.9-0.5,1.8-1.3,2.3l-6.7,3.9C38.7,20.8,37.7,20.8,36.9,20.3z"/>
		<path id="XMLID_23_" class="st0" d="M36.7,20.2l-6.2-3.6c-1-0.5-1.5-1.6-1.5-2.7V6.7c0-1.1,0.6-2.1,1.5-2.7l6.2-3.6
			c1-0.5,2.1-0.5,3.1,0L46,4.1c1,0.5,1.5,1.6,1.5,2.7v7.2c0,1.1-0.6,2.1-1.5,2.7l-6.2,3.6C38.8,20.8,37.7,20.8,36.7,20.2z"/>
		<path id="XMLID_20_" class="st0" d="M65.7,36.9l-6.2-3.6c-1-0.5-1.5-1.6-1.5-2.7v-7.2c0-1.1,0.6-2.1,1.5-2.7l6.2-3.6
			c1-0.5,2.1-0.5,3.1,0l6.2,3.6c1,0.5,1.5,1.6,1.5,2.7v7.2c0,1.1-0.6,2.1-1.5,2.7l-6.2,3.6C67.8,37.5,66.6,37.5,65.7,36.9z"/>
		<path id="XMLID_17_" class="st0" d="M36.9,87.1l-6.7-3.9c-0.8-0.5-1.3-1.3-1.3-2.3v-7.7c0-0.9,0.5-1.8,1.3-2.3l6.7-3.9
			c0.8-0.5,1.8-0.5,2.6,0l6.7,3.9c0.8,0.5,1.3,1.3,1.3,2.3V81c0,0.9-0.5,1.8-1.3,2.3l-6.7,3.9C38.7,87.6,37.7,87.6,36.9,87.1z"/>
		<path id="XMLID_4_" class="st0" d="M36.7,87l-6.2-3.6c-1-0.5-1.5-1.6-1.5-2.7v-7.2c0-1.1,0.6-2.1,1.5-2.7l6.2-3.6
			c1-0.5,2.1-0.5,3.1,0l6.2,3.6c1,0.5,1.5,1.6,1.5,2.7v7.2c0,1.1-0.6,2.1-1.5,2.7L39.8,87C38.8,87.6,37.7,87.6,36.7,87z"/>
	</g>
</g>
</svg>
